<svg xmlns="http://www.w3.org/2000/svg" id="Layer_1" data-name="Layer 1" viewBox="0 0 1084.01 1273.57"><defs><style>.cls-3{stroke-width:0;fill:#07da83;fill-rule:evenodd}</style></defs><path d="M542.01 231.25c68.66 0 124.32 55.75 124.32 124.52s-55.66 124.52-124.32 124.52-124.32-55.75-124.32-124.52 55.66-124.52 124.32-124.52z" class="cls-3"/><path d="m478.19 134.82 63.83 110.74L660.7 39.68l26.01 14.97-144.72 251.08-89.82-155.82 26.02-15.09z" class="cls-3"/><path d="M465.18 95.2c26.01 0 47.09 21.12 47.09 47.17s-21.08 47.17-47.09 47.17-47.09-21.12-47.09-47.17 21.08-47.17 47.09-47.17z" class="cls-3"/><ellipse cx="673.71" cy="47.17" fill="#07da83" stroke-width="0" rx="47.09" ry="47.17"/><path d="M963.15 464.32v446.13c0 44.39-39.31 69.99-70.07 95.5L576.16 1268.7c-6.37 5.28-14.69 6.34-22.17 2.81-7.49-3.53-11.98-10.62-11.98-18.9v-152.78c0-19.08-15.21-34.72-34.25-35.23-198.54-5.28-386.89-56.67-386.89-154.15V464.32c0-206.14 842.29-206.14 842.29 0z" class="cls-3"/><path fill="#fff" fill-rule="evenodd" stroke-width="0" d="M853.84 478.22c-6.47-4.67-15.8-9.5-20.66-11.83-22.81-10.92-48.65-18.58-73.18-24.46-69.75-16.71-146.39-22.73-217.99-22.73s-148.24 6.02-217.99 22.73c-24.53 5.88-50.37 13.54-73.18 24.46-4.86 2.33-14.19 7.15-20.66 11.83v418.33c6.47 4.67 15.8 9.5 20.66 11.83 22.81 10.92 48.65 18.58 73.18 24.46 69.75 16.71 146.39 22.73 217.99 22.73s148.24-6.02 217.99-22.73c24.53-5.88 50.37-13.54 73.18-24.46 4.86-2.33 14.19-7.15 20.66-11.83V478.22z"/><path fill="#091b29" fill-rule="evenodd" stroke-width="0" d="M395.09 594.94c33.03 0 59.8 41.39 59.8 92.45s-26.78 92.45-59.8 92.45-59.8-41.39-59.8-92.45 26.77-92.45 59.8-92.45zm293.84 0c33.03 0 59.8 41.39 59.8 92.45s-26.77 92.45-59.8 92.45-59.8-41.39-59.8-92.45 26.77-92.45 59.8-92.45z"/><path d="M76.04 528.43H95.6v317.9H76.04C34.22 846.33 0 812.06 0 770.17V604.58c0-41.89 34.22-76.16 76.04-76.16zm931.94 0h-19.56v317.9h19.56c41.82 0 76.04-34.27 76.04-76.16V604.58c0-41.89-34.22-76.16-76.04-76.16z" class="cls-3"/></svg>